<svg width="28" height="28" viewBox="0 0 28 28" fill="none" xmlns="http://www.w3.org/2000/svg">
<rect x="2.5" y="22.5" width="23" height="3" rx="0.6" fill="#D9D9D9" stroke="#556068"/>
<rect x="2.5" y="16.5" width="23" height="3" rx="0.6" fill="#D9D9D9" stroke="#556068"/>
<path d="M25 7.5H25.5V7V5.1C25.5 4.76863 25.2314 4.5 24.9 4.5H3.1C2.76863 4.5 2.5 4.76863 2.5 5.1V7V7.5H3H25Z" fill="#D9D9D9" stroke="#556068"/>
<path d="M3 7.5H2.5V8V12.9C2.5 13.2314 2.76863 13.5 3.1 13.5H24.9C25.2314 13.5 25.5 13.2314 25.5 12.9V8V7.5H25H3Z" stroke="#556068"/>
<path d="M24 6H23.5H23" stroke="#556068" stroke-width="0.4" stroke-linecap="round" stroke-linejoin="round"/>
<path d="M24 18H23.5H23" stroke="#556068" stroke-width="0.4" stroke-linecap="round" stroke-linejoin="round"/>
<path d="M24 24H23.5H23" stroke="#556068" stroke-width="0.4" stroke-linecap="round" stroke-linejoin="round"/>
</svg>
