<svg width="28" height="28" viewBox="0 0 28 28" fill="none" xmlns="http://www.w3.org/2000/svg">
<path d="M25 6.5H25.5V6V4.1C25.5 3.76863 25.2314 3.5 24.9 3.5H3.1C2.76863 3.5 2.5 3.76863 2.5 4.1V6V6.5H3H25Z" fill="#D9D9D9" stroke="#556068"/>
<path d="M3 6.5H2.5V7V23.9C2.5 24.2314 2.76863 24.5 3.1 24.5H24.9C25.2314 24.5 25.5 24.2314 25.5 23.9V7V6.5H25H3Z" stroke="#556068"/>
<path d="M5 5H4.5H4" stroke="#556068" stroke-width="0.4" stroke-linecap="round" stroke-linejoin="round"/>
<path d="M7 5H6.5H6" stroke="#556068" stroke-width="0.4" stroke-linecap="round" stroke-linejoin="round"/>
<rect x="4.5" y="8.5" width="19" height="14" stroke="#556068"/>
<mask id="path-6-inside-1_854_32" fill="white">
<path d="M5 9H14V22H5V9Z"/>
</mask>
<path d="M5 9H14V22H5V9Z" fill="url(#paint0_linear_854_32)"/>
<path d="M13.8 9V22H14.2V9H13.8Z" fill="#556068" mask="url(#path-6-inside-1_854_32)"/>
<rect x="14" y="9" width="9" height="13" fill="url(#paint1_linear_854_32)"/>
<path d="M11 12H9H7" stroke="#556068" stroke-linecap="round" stroke-linejoin="round"/>
<path d="M9 14H8H7" stroke="#556068" stroke-linecap="round" stroke-linejoin="round"/>
<path d="M12 20H11H10" stroke="#556068" stroke-linecap="round" stroke-linejoin="round"/>
<path d="M20 13H18.5H17" stroke="#556068" stroke-linecap="round" stroke-linejoin="round"/>
<path d="M20 15H18.5H17" stroke="#556068" stroke-linecap="round" stroke-linejoin="round"/>
<path d="M20 17H18.5H17" stroke="#556068" stroke-linecap="round" stroke-linejoin="round"/>
<defs>
<linearGradient id="paint0_linear_854_32" x1="9.5" y1="9" x2="9.5" y2="22" gradientUnits="userSpaceOnUse">
<stop stop-color="#BABABA"/>
<stop offset="1" stop-color="white"/>
</linearGradient>
<linearGradient id="paint1_linear_854_32" x1="18.5" y1="9" x2="18.5" y2="22" gradientUnits="userSpaceOnUse">
<stop stop-color="#BABABA"/>
<stop offset="1" stop-color="white"/>
</linearGradient>
</defs>
</svg>
